<?xml version="1.0" encoding="utf-8"?>
<!DOCTYPE svg PUBLIC "-//W3C//DTD SVG 1.1//EN" "http://www.w3.org/Graphics/SVG/1.1/DTD/svg11.dtd">
<svg version="1.1" xmlns="http://www.w3.org/2000/svg" xmlns:xlink="http://www.w3.org/1999/xlink" x="0px" y="0px" viewBox="0 0 256 256" enable-background="new 0 0 256 256" xml:space="preserve">
<g><g><g><path fill="#fff" stroke="#000" d="M124.4,19.5c-5.1,15.6-8.6,30.5-10.2,43.9l-0.7,5.8l-4.1,4.1l-4.1,4.1v4.7v4.7h4.1h4.1v9.4v9.4H128h14.5v-9.4v-9.4h4.1h4.1v-4.7v-4.7l-4.1-4.1l-4.1-4.1l-0.7-5.8c-1.1-8.6-2.4-15.5-4.9-25.5c-2.5-9.9-8.2-28-8.9-28C127.8,10,126.2,14.3,124.4,19.5z"/><path fill="#fff" stroke="#000" d="M113.5,134.1v24l-12.6,19.8l-12.6,19.7V208v10.3l1.6,0.5c0.8,0.2,5,1.5,9.3,2.7c4.3,1.3,9.2,2.7,11,3.2l3.2,1v5.3v5.3H128h14.5V231v-5.3l3.3-1c1.8-0.5,6.7-1.9,11-3.2c4.3-1.2,8.5-2.5,9.3-2.7l1.5-0.5V208v-10.4l-12.6-19.7l-12.6-19.8v-24v-24H128h-14.5V134.1z M130.4,192.6v33.6h-2.2h-2.2v-33.6v-33.6h2.2h2.2V192.6z"/><path fill="red" stroke="#000" d="M113.5,243.6v2.4H128h14.5v-2.4v-2.4H128h-14.5V243.6z"/></g></g></g>
</svg>
